<svg width="32" height="32" viewBox="0 0 32 32" fill="none" xmlns="http://www.w3.org/2000/svg">
<path d="M20.4333 21.7C20.1889 21.4111 20.0667 21.0836 20.0667 20.7173C20.0667 20.3511 20.1889 20.0453 20.4333 19.8L22.9 17.3333H13.3333C12.9556 17.3333 12.6387 17.2053 12.3827 16.9493C12.1267 16.6933 11.9991 16.3769 12 16C12 15.6222 12.128 15.3053 12.384 15.0493C12.64 14.7933 12.9564 14.6658 13.3333 14.6667H22.9L20.4333 12.2C20.1667 11.9333 20.0333 11.6164 20.0333 11.2493C20.0333 10.8822 20.1667 10.5658 20.4333 10.3C20.6778 10.0333 20.9836 9.9 21.3507 9.9C21.7178 9.9 22.0231 10.0222 22.2667 10.2667L27.0667 15.0667C27.2 15.2 27.2947 15.3444 27.3507 15.5C27.4067 15.6556 27.4342 15.8222 27.4333 16C27.4333 16.1778 27.4058 16.3444 27.3507 16.5C27.2956 16.6556 27.2009 16.8 27.0667 16.9333L22.2667 21.7333C21.9778 22.0222 21.6609 22.1502 21.316 22.1173C20.9711 22.0844 20.6769 21.9453 20.4333 21.7ZM6.66667 28C5.93334 28 5.30534 27.7387 4.78267 27.216C4.26 26.6933 3.99911 26.0658 4 25.3333V6.66667C4 5.93333 4.26134 5.30533 4.784 4.78267C5.30667 4.26 5.93422 3.99911 6.66667 4H14.6667C15.0444 4 15.3613 4.128 15.6173 4.384C15.8733 4.64 16.0009 4.95644 16 5.33333C16 5.71111 15.872 6.028 15.616 6.284C15.36 6.54 15.0436 6.66756 14.6667 6.66667H6.66667V25.3333H14.6667C15.0444 25.3333 15.3613 25.4613 15.6173 25.7173C15.8733 25.9733 16.0009 26.2898 16 26.6667C16 27.0444 15.872 27.3613 15.616 27.6173C15.36 27.8733 15.0436 28.0009 14.6667 28H6.66667Z" fill="black"/>
</svg>
